PathFileType	4	(X/Y/Z)	anato.trc
DataRate	CameraRate	NumFrames	NumMarkers	Units	OrigDataRate	OrigDataStartFrame	OrigNumFrames
100.0	100.0	4	17	mm	100.0	387	618
Frame#	Time	STER			XIPH			T10			T1			CLAV_SC			CLAV_AC			SCAP_AA			SCAP_CP			SCAP_TS			SCAP_IA			DELT			ARMl			EPICm			EPICl			LARM_elb			STYLr			STYLu		
		X1	Y1	Z1	X2	Y2	Z2	X3	Y3	Z3	X4	Y4	Z4	X5	Y5	Z5	X6	Y6	Z6	X7	Y7	Z7	X8	Y8	Z8	X9	Y9	Z9	X10	Y10	Z10	X11	Y11	Z11	X12	Y12	Z12	X13	Y13	Z13	X14	Y14	Z14	X15	Y15	Z15	X16	Y16	Z16	X17	Y17	Z17

387	3.86	386.5704345703125	37.02131652832031	1429.4375	383.67706298828125	86.29064178466797	1270.8272705078125	371.1788635253906	-142.52127075195312	1237.202880859375	362.17559814453125	-115.77558898925781	1481.418212890625	420.8484802246094	27.1690731048584	1435.765380859375	567.4763793945312	-48.271095275878906	1459.998046875	570.8814086914062	-94.56532287597656	1444.7017822265625	513.5582275390625	-98.77803802490234	1475.34521484375	496.306884765625	-155.54702758789062	1424.26806640625	477.1584167480469	-168.18524169921875	1283.1536865234375	647.0724487304688	-76.86287689208984	1317.3209228515625	664.7879028320312	-89.18649291992188	1272.1092529296875	669.4977416992188	-32.40962219238281	1113.290283203125	731.843505859375	-96.63523864746094	1170.234619140625	684.5869750976562	-77.38445281982422	1106.170654296875	934.09521484375	3.9183151721954346	1004.8843994140625	866.8712768554688	7.877141952514648	954.7874145507812
388	3.87	386.51171875	36.96216583251953	1429.43408203125	383.71783447265625	86.32135772705078	1270.8427734375	371.2503967285156	-142.4727325439453	1237.1939697265625	362.2142028808594	-115.79536437988281	1481.390869140625	420.9102783203125	27.155149459838867	1435.7490234375	567.5286254882812	-48.327579498291016	1459.960205078125	570.9303588867188	-94.62213134765625	1444.6405029296875	513.6384887695312	-98.84062194824219	1475.2882080078125	496.29486083984375	-155.58497619628906	1424.3114013671875	477.164794921875	-168.16929626464844	1283.12353515625	647.0968017578125	-76.88788604736328	1317.273681640625	664.8179321289062	-89.19049072265625	1272.0428466796875	669.6096801757812	-32.323333740234375	1113.244873046875	731.7061767578125	-96.6050796508789	1170.187744140625	684.5770874023438	-77.30941772460938	1106.1246337890625	934.18115234375	4.035275459289551	1004.9414672851562	866.9134521484375	8.064547538757324	954.8230590820312
389	3.88	386.5369567871094	36.92237091064453	1429.38623046875	383.73919677734375	86.32596588134766	1270.8555908203125	371.2655029296875	-142.42562866210938	1237.165771484375	362.25213623046875	-115.77889251708984	1481.3797607421875	420.9971618652344	27.128908157348633	1435.739501953125	567.5714111328125	-48.39752960205078	1459.889404296875	570.9222412109375	-94.67790985107422	1444.5810546875	513.6318969726562	-98.90894317626953	1475.2462158203125	496.3983154296875	-155.61627197265625	1424.174072265625	477.1634216308594	-168.1543731689453	1283.086181640625	647.1405029296875	-76.91295623779297	1317.193359375	664.838134765625	-89.21469116210938	1271.9676513671875	669.6190795898438	-32.31996154785156	1113.1917724609375	731.8819580078125	-96.57112884521484	1170.10791015625	684.6201782226562	-77.28656768798828	1106.04052734375	933.9300537109375	4.140063762664795	1004.865966796875	866.998291015625	8.224425315856934	954.8626708984375
390	3.89	386.5641174316406	36.896419525146484	1429.37109375	383.7976989746094	86.3515396118164	1270.8831787109375	371.3014221191406	-142.3624725341797	1237.132080078125	362.28594970703125	-115.81556701660156	1481.357177734375	421.0691833496094	27.11574935913086	1435.712646484375	567.6466674804688	-48.466373443603516	1459.894775390625	570.9859619140625	-94.72745513916016	1444.4932861328125	513.7012329101562	-98.95755004882812	1475.1817626953125	496.4195861816406	-155.6576690673828	1424.127197265625	477.1310119628906	-168.14352416992188	1283.0098876953125	647.1207275390625	-76.940673828125	1317.13623046875	664.8570556640625	-89.23152923583984	1271.906494140625	669.6207275390625	-32.31275939941406	1113.143798828125	731.7783203125	-96.5660171508789	1170.068359375	684.64794921875	-77.22731018066406	1105.98291015625	934.0178833007812	4.22462797164917	1004.918212890625	867.1078491210938	8.346782684326172	954.9465942382812
